<svg height="492pt" viewBox="0 0 492 492.00074" width="492pt" xmlns="http://www.w3.org/2000/svg"><path d="m454.75 198.75h-93.75c-20.5625.023438-37.226562 16.6875-37.25 37.25v218.75c.023438 20.5625 16.6875 37.226562 37.25 37.25h93.75c20.5625-.023438 37.226562-16.6875 37.25-37.25v-218.75c-.023438-20.5625-16.6875-37.226562-37.25-37.25zm25.25 48.71875v170.03125h-144.25v-170.03125zm-119-36.71875h93.75c13.730469.019531 24.933594 10.992188 25.238281 24.71875h-144.222656c.300781-13.726562 11.503906-24.699219 25.234375-24.71875zm93.75 269.25h-93.75c-13.9375-.015625-25.234375-11.308594-25.25-25.25v-25.25h144.25v25.25c-.015625 13.941406-11.3125 25.234375-25.25 25.25zm0 0"/><path d="m422.328125 448.75h-28.90625c-3.3125 0-6 2.6875-6 6s2.6875 6 6 6h28.90625c3.3125 0 6-2.6875 6-6s-2.6875-6-6-6zm0 0"/><path d="m37.25 293.25h93.75c20.5625-.023438 37.226562-16.6875 37.25-37.25v-218.75c-.023438-20.5625-16.6875-37.2265625-37.25-37.25h-93.75c-20.5625.0234375-37.2265625 16.6875-37.25 37.25v218.75c.0234375 20.5625 16.6875 37.226562 37.25 37.25zm93.75-12h-93.75c-13.9375-.015625-25.234375-11.308594-25.25-25.25v-25.25h144.25v25.25c-.015625 13.941406-11.3125 25.234375-25.25 25.25zm25.25-232.53125v170.03125h-144.25v-170.03125zm-119-36.71875h93.75c13.730469.019531 24.933594 10.992188 25.238281 24.71875h-144.222656c.300781-13.726562 11.503906-24.699219 25.234375-24.71875zm0 0"/><path d="m98.578125 250h-28.90625c-3.3125 0-6 2.6875-6 6s2.6875 6 6 6h28.90625c3.3125 0 6-2.6875 6-6s-2.6875-6-6-6zm0 0"/><path d="m156.785156 420.300781c-33.503906-21.835937-54.265625-58.632812-55.628906-98.601562-.046875-2.160157-1.253906-4.128907-3.15625-5.15625-1.902344-1.023438-4.210938-.945313-6.042969.207031-1.828125 1.152344-2.898437 3.199219-2.792969 5.359375 1.203126 37.367187 17.921876 72.542969 46.140626 97.070313 28.21875 24.527343 65.378906 36.183593 102.550781 32.171874l5.800781 27.40625c.5 2.375 2.386719 4.210938 4.769531 4.65625 2.386719.445313 4.804688-.59375 6.128907-2.628906l25.644531-39.414062c1.808593-2.777344 1.019531-6.492188-1.753907-8.300782l-39.417968-25.640624c-2.035156-1.324219-4.664063-1.292969-6.667969.078124-2 1.375-2.976563 3.816407-2.472656 6.191407l5.46875 25.851562c-27.613281 2.683594-55.324219-4.105469-78.570313-19.25zm110.085938 19.554688-14.472656 22.246093-3.863282-18.253906c0-.011718 0-.023437 0-.035156-.035156-.234375-.085937-.46875-.152344-.699219l-3.75-17.730469zm0 0"/><path d="m215.136719 50.445312 39.414062 25.644532c2.035157 1.324218 4.667969 1.289062 6.667969-.082032 2-1.371093 2.976562-3.816406 2.476562-6.1875l-5.472656-25.851562c33.671875-3.253906 67.183594 7.5625 92.601563 29.882812 25.417969 22.320313 40.472656 54.15625 41.597656 87.964844.109375 3.230469 2.757813 5.796875 5.992187 5.800782h.210938c3.308594-.113282 5.902344-2.890626 5.789062-6.203126-1.242187-37.351562-17.972656-72.503906-46.179687-97.023437s-65.347656-36.199219-102.511719-32.230469l-5.796875-27.402344c-.503906-2.375-2.386719-4.210937-4.773437-4.65625-2.386719-.445312-4.804688.59375-6.128906 2.628907l-25.644532 39.414062c-1.804687 2.777344-1.019531 6.492188 1.757813 8.300781zm26.046875-29.03125 3.863281 18.25v.035157c.035156.238281.085937.472656.152344.703125l3.753906 17.726562-22.242187-14.46875zm0 0"/><path d="m84.125 142.078125c9.785156.167969 17.648438 8.125 17.695312 17.910156.046876 9.789063-7.734374 17.820313-17.519531 18.082031-.058593 0-.117187-.007812-.175781-.007812s-.113281.007812-.171875.007812c-9.867187-.101562-17.8125-8.125-17.828125-17.992187 0-3.3125-2.683594-6-6-6-3.3125 0-6 2.6875-6 6 .019531 14.253906 10.042969 26.53125 24 29.402344v8.882812c0 3.3125 2.6875 6 6 6 3.316406 0 6-2.6875 6-6v-8.882812c15.105469-3.066407 25.429688-17.082031 23.878906-32.414063-1.546875-15.335937-14.464844-27.003906-29.878906-26.988281-9.941406 0-18-8.058594-18-18s8.058594-18 18-18 18 8.058594 18 18c0 3.316406 2.6875 6 6 6 3.316406 0 6-2.683594 6-6-.015625-14.25-10.039062-26.527344-24-29.398437v-7.785157c0-3.316406-2.683594-6-6-6-3.3125 0-6 2.683594-6 6v7.789063c-15.101562 3.066406-25.425781 17.082031-23.875 32.414062 1.546875 15.335938 14.464844 27 29.875 26.984375zm0 0"/><path d="m380.875 379.238281h9.371094v7.699219c0 3.3125 2.683594 6 6 6 3.3125 0 6-2.6875 6-6v-7.699219h7.660156v7.699219c0 3.3125 2.6875 6 6 6s6-2.6875 6-6v-8.867188c9.46875-2.878906 16.574219-10.75 18.472656-20.464843 1.898438-9.710938-1.71875-19.679688-9.40625-25.910157 7.6875-6.234374 11.304688-16.203124 9.40625-25.914062-1.898437-9.710938-9.003906-17.585938-18.472656-20.464844v-9.511718c0-3.3125-2.6875-6-6-6s-6 2.6875-6 6v8.351562h-7.660156v-8.351562c0-3.3125-2.6875-6-6-6-3.316406 0-6 2.6875-6 6v8.351562h-9.371094c-3.3125 0-6 2.683594-6 6v83.074219c-.003906 3.316406 2.683594 6.007812 6 6.007812zm48-26.769531c-.007812 8.152344-6.617188 14.757812-14.769531 14.769531h-27.230469v-29.539062h27.230469c8.152343.011719 14.757812 6.617187 14.769531 14.769531zm-42-56.308594h27.230469c5.304687-.042968 10.226562 2.761719 12.890625 7.347656 2.667968 4.589844 2.667968 10.253907 0 14.839844-2.664063 4.589844-7.585938 7.394532-12.890625 7.351563h-27.230469zm0 0"/></svg>